<svg xmlns="http://www.w3.org/2000/svg" viewBox="0 0 371.14 311.27"><defs><style>.cls-1{fill:#fefefe;}.cls-2{fill:#5bc9d1;}</style></defs><g id="Calque_2" data-name="Calque 2"><g id="Calque_1-2" data-name="Calque 1"><path d="M329.21,23.87c.05,3.65-2.62,6-7,6.05q-26,0-51.9,0c-4.34,0-7-2.44-6.93-6.09S266.13,18,270.57,18c8.71,0,17.42,0,26.13,0,8.47,0,16.93,0,25.39,0C326.51,18,329.16,20.24,329.21,23.87Z"/><path d="M353.16,23.85c0,3.38-2.45,5.85-6.17,6.07-.87,0-1.74,0-2.61,0v0c-1.11,0-2.23.08-3.34,0a6,6,0,0,1-5.8-6c.06-3.25,2.45-5.66,6-5.86,1.86-.11,3.72-.08,5.58,0C350.61,18.12,353.1,20.46,353.16,23.85Z"/><path d="M362.56,0H146c-6.41,0-8.27,1.83-8.27,8.16,0,17.83-.09,35.66.07,53.49,0,3.22-.56,4.3-4.12,4.29-41.9-.15-83.8-.1-125.69-.09C2,65.85,0,67.78,0,73.59q0,88.1,0,176.19c0,5.58,2.06,7.6,7.7,7.61,12.34,0,24.69.09,37-.07,2.69,0,3.24.73,3.22,3.3-.14,14,0,27.93-.09,41.89,0,3.34,0,6.6,3.67,8.21s6.07-.67,8.43-3c15.94-16,31.94-31.9,47.83-47.92a7.48,7.48,0,0,1,5.84-2.43q79.49.11,159,.05c7.07,0,8.72-1.66,8.72-8.84,0-31.8,0-63.6-.08-95.39,0-3,.87-3.82,3.69-3.56a44.74,44.74,0,0,0,7.85,0,7.89,7.89,0,0,1,6.82,2.77c12,12.18,24.12,24.2,36.18,36.3,2.15,2.16,4.42,3.72,7.61,2.39s3.82-3.89,3.8-7c-.07-10.47.06-21-.09-31.42,0-2.48.66-3.15,3.08-3,4.11.21,8.23.06,12.34.06,6.86,0,8.59-1.73,8.59-8.61V8.61C371.14,1.72,369.42,0,362.56,0ZM266,245.47c-51.74-.06-103.49,0-155.23-.12a12.22,12.22,0,0,0-9.53,4C88.58,262.24,75.73,275,63,287.75c-.84.84-1.58,1.79-3.1,3.54V258.05c0-12.44-.18-12.63-12.78-12.63-10.6,0-21.2-.07-31.8.06-2.43,0-3.38-.31-3.37-3.12q.13-80.79,0-161.59c0-2.53.75-3,3.1-3q125.69.09,251.37,0c2.46,0,3,.65,3,3.07q-.1,80.79,0,161.59C269.46,245.35,268.32,245.47,266,245.47Zm93.2-110.87c0,2.3-.36,3.3-3,3.14-4.1-.24-8.22-.06-12.34-.06-7.06,0-8.68,1.65-8.68,8.86v24.62c-8.83-8.85-17.46-16.75-25.15-25.48-5.54-6.29-11.59-9.22-19.87-8.08-2.77.39-6.54,1-8.26-.46s-.56-5.36-.57-8.18c-.05-18.21,0-36.41,0-54.61,0-6.8-1.75-8.5-8.68-8.5-39.77,0-79.53,0-119.3.08-3.17,0-3.83-.81-3.79-3.86.17-15.71.14-31.41,0-47.12,0-2.48.69-3,3.08-3q101.73.11,203.46,0c2.35,0,3.1.49,3.1,3Q359.1,74.77,359.21,134.6Z"/><path class="cls-1" d="M322.24,29.92q-26,0-51.9,0c-4.34,0-7-2.44-6.93-6.09S266.13,18,270.57,18c8.71,0,17.42,0,26.13,0,8.47,0,16.93,0,25.39,0,4.42,0,7.07,2.27,7.12,5.9S326.59,29.91,322.24,29.92Zm24.75,0c-.87,0-1.74,0-2.61,0v0c-1.11,0-2.23.08-3.34,0a6,6,0,0,1-5.8-6c.06-3.25,2.45-5.66,6-5.86,1.86-.11,3.72-.08,5.58,0,3.81.14,6.3,2.48,6.36,5.87S350.71,29.7,347,29.92Z"/><path d="M329.21,23.87c.05,3.65-2.62,6-7,6.05q-26,0-51.9,0c-4.34,0-7-2.44-6.93-6.09S266.13,18,270.57,18c8.71,0,17.42,0,26.13,0,8.47,0,16.93,0,25.39,0C326.51,18,329.16,20.24,329.21,23.87Z"/><path d="M353.16,23.85c0,3.38-2.45,5.85-6.17,6.07-.87,0-1.74,0-2.61,0v0c-1.11,0-2.23.08-3.34,0a6,6,0,0,1-5.8-6c.06-3.25,2.45-5.66,6-5.86,1.86-.11,3.72-.08,5.58,0C350.61,18.12,353.1,20.46,353.16,23.85Z"/><path class="cls-2" d="M100.5,148.58c-2.29-2.38-2.57-5.3-.4-7.77,4.34-4.93,9.73-8.08,16.41-8.4,6.88.19,12.27,3.33,16.71,8.18,2.22,2.43,2.08,5.26,0,7.81s-5.34,2.68-8.07.74c-.71-.5-1.32-1.14-2-1.71-4.76-4.06-8-4-12.86.07a20.8,20.8,0,0,1-2.3,1.91C105.3,151.05,102.66,150.83,100.5,148.58Z"/><path class="cls-2" d="M175.38,176.77a5.67,5.67,0,0,1-.9,8c-9.89,8.07-21,13.25-33.77,13.43-13-.25-23.78-5.43-33.54-13.19a5.76,5.76,0,0,1-1.17-8.29c2-2.66,5.23-3.18,8.29-1.22s5.88,4.2,9,6c11.56,6.5,23.24,6.46,34.79,0,3.14-1.75,6-4,9-6S173.39,174.09,175.38,176.77Z"/><path class="cls-2" d="M181.2,140.72c2.2,2.46,2,5.38-.25,7.78s-5,2.56-7.78.78a8.44,8.44,0,0,1-.88-.7c-7-5.7-8.22-5.69-15.35,0-3,2.42-6.4,2.37-8.7-.13s-2.15-6,.58-8.66c4.39-4.3,9.47-7.25,16.05-7.41C171.43,132.68,176.83,135.81,181.2,140.72Z"/><path class="cls-2" d="M139.81,90.54c-39,.11-71,32.65-70.95,72.23,0,39.2,32.52,71.52,71.77,71.43,39.67-.1,72-32.32,71.87-71.68C212.39,122.27,180.23,90.43,139.81,90.54Zm.71,131.66c-32.92,0-59.67-26.9-59.68-60.08,0-32.56,26.91-59.56,59.45-59.61,33.19-.05,60.22,26.65,60.24,59.54A59.87,59.87,0,0,1,140.52,222.2Z"/><path class="cls-2" d="M100.1,140.81c4.34-4.93,9.73-8.08,16.41-8.4,6.88.19,12.27,3.33,16.71,8.18,2.22,2.43,2.08,5.26,0,7.81s-5.34,2.68-8.07.74c-.71-.5-1.32-1.14-2-1.71-4.76-4.06-8-4-12.86.07a20.8,20.8,0,0,1-2.3,1.91c-2.68,1.64-5.32,1.42-7.48-.83S97.93,143.28,100.1,140.81Zm74.38,44c-9.89,8.07-21,13.25-33.77,13.43-13-.25-23.78-5.43-33.54-13.19a5.76,5.76,0,0,1-1.17-8.29c2-2.66,5.23-3.18,8.29-1.22s5.88,4.2,9,6c11.56,6.5,23.24,6.46,34.79,0,3.14-1.75,6-4,9-6s6.3-1.45,8.29,1.23A5.67,5.67,0,0,1,174.48,184.81ZM181,148.5c-2.25,2.4-5,2.56-7.78.78a8.44,8.44,0,0,1-.88-.7c-7-5.7-8.22-5.69-15.35,0-3,2.42-6.4,2.37-8.7-.13s-2.15-6,.58-8.66c4.39-4.3,9.47-7.25,16.05-7.41,6.56.26,12,3.39,16.33,8.3C183.4,143.18,183.21,146.1,181,148.5Z"/><path class="cls-2" d="M100.5,148.58c-2.29-2.38-2.57-5.3-.4-7.77,4.34-4.93,9.73-8.08,16.41-8.4,6.88.19,12.27,3.33,16.71,8.18,2.22,2.43,2.08,5.26,0,7.81s-5.34,2.68-8.07.74c-.71-.5-1.32-1.14-2-1.71-4.76-4.06-8-4-12.86.07a20.8,20.8,0,0,1-2.3,1.91C105.3,151.05,102.66,150.83,100.5,148.58Z"/><path class="cls-2" d="M175.38,176.77a5.67,5.67,0,0,1-.9,8c-9.89,8.07-21,13.25-33.77,13.43-13-.25-23.78-5.43-33.54-13.19a5.76,5.76,0,0,1-1.17-8.29c2-2.66,5.23-3.18,8.29-1.22s5.88,4.2,9,6c11.56,6.5,23.24,6.46,34.79,0,3.14-1.75,6-4,9-6S173.39,174.09,175.38,176.77Z"/><path class="cls-2" d="M181,148.5c-2.25,2.4-5,2.56-7.78.78a8.44,8.44,0,0,1-.88-.7c-7-5.7-8.22-5.69-15.35,0-3,2.42-6.4,2.37-8.7-.13s-2.15-6,.58-8.66c4.39-4.3,9.47-7.25,16.05-7.41,6.56.26,12,3.39,16.33,8.3C183.4,143.18,183.21,146.1,181,148.5Z"/><path class="cls-2" d="M174.48,184.81c-9.89,8.07-21,13.25-33.77,13.43-13-.25-23.78-5.43-33.54-13.19a5.76,5.76,0,0,1-1.17-8.29c2-2.66,5.23-3.18,8.29-1.22s5.88,4.2,9,6c11.56,6.5,23.24,6.46,34.79,0,3.14-1.75,6-4,9-6s6.3-1.45,8.29,1.23A5.67,5.67,0,0,1,174.48,184.81Z"/><path class="cls-2" d="M133.19,148.4c-2,2.42-5.34,2.68-8.07.74-.71-.5-1.32-1.14-2-1.71-4.76-4.06-8-4-12.86.07a20.8,20.8,0,0,1-2.3,1.91c-2.68,1.64-5.32,1.42-7.48-.83s-2.57-5.3-.4-7.77c4.34-4.93,9.73-8.08,16.41-8.4,6.88.19,12.27,3.33,16.71,8.18C135.44,143,135.3,145.85,133.19,148.4Z"/><path class="cls-2" d="M181,148.5c-2.25,2.4-5,2.56-7.78.78a8.44,8.44,0,0,1-.88-.7c-7-5.7-8.22-5.69-15.35,0-3,2.42-6.4,2.37-8.7-.13s-2.15-6,.58-8.66c4.39-4.3,9.47-7.25,16.05-7.41,6.56.26,12,3.39,16.33,8.3C183.4,143.18,183.21,146.1,181,148.5Z"/></g></g></svg>