<svg xmlns="http://www.w3.org/2000/svg" viewBox="0 0 292.86 292.87"><defs><style>.cls-1{fill:#1c1c1c;}.cls-2{fill:#5a5a5a;}.cls-3{fill:#1f1f1f;}.cls-4{fill:#5bc9d1;}.cls-5{fill:#fefefe;}</style></defs><g id="Calque_2" data-name="Calque 2"><g id="Calque_1-2" data-name="Calque 1"><path d="M292.86,218.3c-.58-2.88-.43-5.85-1.4-8.67-4.83-14-14.11-23.7-28-28.91-4.05-1.53-4.08-1.47-4.08-5.64,0-18.94,0-37.89,0-56.84a9.82,9.82,0,0,1,2-6.38,16,16,0,0,0,3.23-10.42c-.11-5.52-.21-11,0-16.56.26-5.75-1.58-10.47-5.92-14.19a6,6,0,0,1-2.15-5c.07-7.52,0-15,0-22.56a23.62,23.62,0,0,0-3.77-12.7c-5.58-8.9-13.69-13.5-24.13-14-1.72-.09-3.06-.37-3.83-2.26C221.55,6.18,216.14.84,207.16,0H186c-1,.6-2,.16-3,.29h-2.66C167.37.49,156.58,6,146.74,14a60.64,60.64,0,0,0-12.57,14.22,7.65,7.65,0,0,0,0-1.92c.05-2.84,0-5.69,0-8.54C134.2,8,129.14,1.77,119.74,0H42.62C40.24.66,38.81,2.06,39,4.71c.2,2.35,2,4.13,4.75,4.57a25.38,25.38,0,0,0,4.27.16q33.41,0,66.81,0c6.37,0,9.13,2.76,9.14,9,0,15.7,0,31.42,0,47.12a6.63,6.63,0,0,1-2.41,5.47,15.82,15.82,0,0,0-5.54,11.82c-.2,6.75-.19,13.52,0,20.27.1,3.21.07,3.37-3.21,3.39-6.09,0-12.18,0-18.27,0-5.7,0-7.1,1.45-7.19,7.07,0,1.74.25,3.52-.37,5.58-4.57-3.11-8.54-6.35-12.49-9.59a13.41,13.41,0,0,0-9.16-3.11c-15.42.11-30.84.07-46.26,0-6.63,0-9.34-2.77-9.37-9.43-.05-8.28,0-16.56,0-24.84,0-17.9,0-35.8,0-53.69,0-6.35,2.75-9,9-9.15a39.07,39.07,0,0,0,5.41-.15,5,5,0,0,0,4.57-4.41c.29-2.31-.69-3.75-3.36-4.88H14.05C4.58.87,0,9.24,0,15.88.16,44,.06,72.06.08,100.16a14.51,14.51,0,0,0,1.38,6.92c3.55,6.82,9.45,9.73,16.83,9.79,14.84.12,29.7.07,44.55,0a11.09,11.09,0,0,1,7.36,2.48c5.75,4.54,11.49,9.1,17.3,13.57,2,1.57,4.19,2.83,6.82,1.66s3.23-3.83,3.41-6.45c.18-2.47,0-4.95.07-7.42,0-3.51.28-3.76,3.72-3.8,5.23-.06,10.47.1,15.7-.07,3.89-.13,3.91-.19,3.91,3.78q0,23.85,0,47.7c0,5.07,0,5.07-5,5.08H19.32c-1.42,0-2.84,0-4.27.08C8.11,173.94.3,179.62.15,187.79c-.21,11.43-.1,22.85,0,34.27A4.05,4.05,0,0,0,4,226.22a5,5,0,0,0,5.25-3.11,11.54,11.54,0,0,0,.53-4.52q0-13.56,0-27.13c0-3.09.93-5.63,4-7a12.41,12.41,0,0,1,5.05-.74H123.37c6.43,0,8.61,2.19,8.62,8.55q0,31.69,0,63.41c0,4.41-.12,4.52-4.44,4.52H14.17c-4.22,0-4.32-.13-4.35-4.3-.05-4.76.2-9.53-.13-14.27-.24-3.32-2.46-5.39-5.27-5.27S.08,238.41.08,242c0,11.9,0,23.8,0,35.71C0,283,2.26,287,6.32,290.16c3.06,2.43,6.61,2.7,10.26,2.7H287c.48,0,1,0,1.43,0,2.28.08,3.85-.8,4.4-3.14V252c-.65-2.41-2.1-3.78-4.72-3.56a5.14,5.14,0,0,0-4.5,4.49,20,20,0,0,0-.18,3.71c0,7.8,0,15.61,0,23.42,0,2.09-.59,3.17-2.91,3.14-7.43-.07-14.85,0-22.28,0-2,0-3-.76-2.91-2.85.07-1.33,0-2.67,0-4,0-3.72.14-7.43-.08-11.14-.17-2.91-1.74-4.52-4.35-4.77s-4.47,1.06-5.33,3.74a12.6,12.6,0,0,0-.45,4c0,3.9,0,7.81,0,11.71,0,3-.31,3.31-3.26,3.32q-43,0-85.95,0c-2.08,0-3-.5-2.45-2.81a48.79,48.79,0,0,0,.68-13.65c-.29-4.82-2-6.35-6.83-6.41-5.07-.07-5.05-.07-5.08-5-.17-23,.36-46.07-.29-69.11a1.8,1.8,0,0,1,1-1.86c3.1-1.81,5.17-1.15,6.47,2.11.24.62.46,1.25.69,1.87,3.41,9.2,6.91,18.36,10.42,27.52,2.09,5.44,6.23,8.51,12,8.68s9.82-2.54,12.32-7.71q2.13-4.37,4.35-8.67c.33-.64.43-1.67,1.38-1.58.7.06.86.94,1.16,1.52,1.71,3.3,3.2,6.71,5,9.93A12.8,12.8,0,0,0,212,223.9c4.35-1.36,6.95-4.47,8.57-8.56,3.87-9.73,7.45-19.58,11.14-29.38.83-2.2,1.81-2.93,4.22-2.26,7.06,2,14.19,3.71,21.22,5.75,16.35,4.71,26.32,18.09,26.36,35.16,0,2.95-.18,5.91.11,8.86a5.11,5.11,0,0,0,4.31,4.68c2.14.36,3.84-.77,5-3.28v-12a4.27,4.27,0,0,1,0-3.43ZM225.21,54.15c.73-8.6.22-17.32.12-26,0-1.9.53-2.36,2.38-2.36,11.15,0,19.38,7.9,19.57,19.05.11,6.85,0,13.71.06,20.57,0,1.55-.29,2.24-2,2.11-1.89-.15-3.8,0-5.71,0-6.14,0-6.88.64-7.56,7C228.85,67.73,224.53,62.09,225.21,54.15Zm-5.52,15.19c2.51,4.8,4.35,9.14,6.89,13,5,7.65,6.58,15.88,5.79,24.87A49.2,49.2,0,0,1,228,124.51a2.83,2.83,0,0,1-3,1.87q-12.56-.13-25.12,0a3.72,3.72,0,0,1-3.1-1.44,8.44,8.44,0,0,0-12.23-.39,8.54,8.54,0,0,0,0,12.25,8.37,8.37,0,0,0,12.21-.42,4,4,0,0,1,3.39-1.49c6.62.07,13.25,0,20.48,0a40.62,40.62,0,0,1-21.17,11.92c-26.46,5.56-50.3-13.7-50.87-41a36.55,36.55,0,0,0,0-5.13c-.77-4.61,1.18-7.49,4.89-10.14A44.88,44.88,0,0,1,180,81.82c4.66,0,9.33-.17,14,0a28.61,28.61,0,0,0,23.63-9.81C218.26,71.35,218.78,70.54,219.69,69.34ZM177.85,9.39c9.13-1.69,18.43-1,27.63-.61,6.29.28,11.16,5.91,11.25,12.37.19,12.76.07,25.52.08,38.28a2.54,2.54,0,0,1-.68,2.07c-2.83,2.68-5.51,5.55-8.49,8-3.24,2.71-7.17,3.71-11.41,3.73-7,0-14.1-.3-21.13.24a49.65,49.65,0,0,0-24.92,8.88c-.38.26-.79.47-1.62,1,0-3.73,0-6.94,0-10.17,0-4.26-1.44-5.66-5.63-5.68-2.48,0-5-.07-7.43,0-1.37,0-1.95-.22-2-1.82C132.2,38,150.56,14.46,177.85,9.39ZM125.44,97.07c.23-4.35,0-8.74,0-13.11.06-4.83,3-7.74,7.81-7.88,6.69-.21,6.69-.21,6.69,6.53v10c0,4.85-.07,9.69,0,14.53,0,1.65-.48,2-2.06,2.07C128.77,109.57,124.85,108.08,125.44,97.07Zm19.22,176.17a27,27,0,0,0,0,2.85c-.21,5.12-3,7.91-8.08,7.92Q76.76,284,17,284c-5.18,0-8-2.93-8.06-8.19-.06-6.27-.06-6.27,6.31-6.27H76.57c21.51,0,43,.07,64.5-.08C144.19,269.43,145.07,270.4,144.66,273.24Zm-8.73-96.81c-3.12.82-5.26-.94-5.26-4.17V146.54c0-8.85.05-17.71,0-26.56,0-1.84.38-2.5,2.34-2.33,2.65.22,5.73-.73,7.87.33s1.83,4.49,2.8,6.81a50.06,50.06,0,0,0,20.31,24,3.76,3.76,0,0,1,2.09,3.82c-.13,4.67-.09,9.34,0,14a1.93,1.93,0,0,1-1.75,2.29C154.81,171.35,145.39,173.94,135.93,176.43Zm47.35,22.22c-2.4,4.74-4.67,9.54-7,14.32a3.61,3.61,0,0,1-3.65,2.23,3.49,3.49,0,0,1-3.24-2.4c-.36-1-.74-1.94-1.12-2.92-3.79-10-7.57-20-11.41-30.18,2.73-.72,5.31-1.32,7.84-2.09,1.21-.37,1.58-.13,1.89,1.13,2.06,8.7,7.41,14.59,15.72,17.74C183.65,197,184,197.31,183.28,198.65Zm6.93-9.37c-8.92-.11-15.58-7.11-15.64-16.45,0-6.18,0-12.35,0-19A51.86,51.86,0,0,0,196.19,156a45.09,45.09,0,0,0,8.07-1.63c1.41-.45,2.23-.44,2.19,1.5-.1,5.8.1,11.6-.07,17.4C206.11,182.65,199.19,189.39,190.21,189.28Zm31.15-2.5c-3.14,8.45-6.4,16.84-9.56,25.28-.7,1.89-1.82,3.07-3.89,3.18a3.78,3.78,0,0,1-3.19-2.08c-2.41-4.95-4.8-9.9-7.24-14.82-.53-1.06-.2-1.4.84-1.77a24,24,0,0,0,16-17.84c.38-1.51.94-1.44,2.11-1.07,2.42.77,5.94.51,7,2.33S222.2,184.49,221.36,186.78Zm26.47-9.55c-10.24-2.88-20.52-5.57-30.81-8.25-1.54-.4-2.13-1-2.08-2.68.13-4.75.09-9.51,0-14.27a2.92,2.92,0,0,1,1.59-3,48.18,48.18,0,0,0,14.09-12.74,4.44,4.44,0,0,1,2.48-1.68c5.07-1.47,7.68-5,7.79-10.27.05-2.16-1-5.1.44-6.26s4.19-.14,6.32-.46c2.42-.37,2.54.76,2.53,2.68-.09,9.13,0,18.28,0,27.42s0,18.29,0,27.43C250.21,177,250.18,177.89,247.83,177.23Zm7.55-75.58c-.2,4.6-3.07,7.32-7.63,7.48-6.86.23-6.86.23-6.86-6.59,0-8.08.05-16.17,0-24.25,0-1.69.34-2.24,2.17-2.26,10.77-.15,12.39,1.4,12.39,12.22v4.56h0C255.41,95.76,255.51,98.71,255.38,101.65Z"/><path class="cls-1" d="M292.85,222.87a2.53,2.53,0,0,1,0-3.43Z"/><path class="cls-2" d="M180.21.49a1.19,1.19,0,0,0,.1-.49h2.85c.2.15.25.27.16.37a.35.35,0,0,1-.25.12Z"/><path class="cls-3" d="M183.07.49a3.86,3.86,0,0,0,.09-.49H186C185.16.93,184.08.52,183.07.49Z"/><path d="M71,206.15a15.79,15.79,0,1,0,15.79,15.67A15.74,15.74,0,0,0,71,206.15Zm-.09,23a7.27,7.27,0,0,1-7.12-7.34,7.17,7.17,0,0,1,7.34-7.07A7.06,7.06,0,0,1,78.18,222,7.2,7.2,0,0,1,70.88,229.15Z"/><path d="M48.26,49.31A5.76,5.76,0,0,1,54,43.52a5.88,5.88,0,0,1,5.69,5.64A5.67,5.67,0,0,1,54,55,5.58,5.58,0,0,1,48.26,49.31Z"/><path d="M84.36,66.81c1.63,2,1.38,4.25-.81,6.3a23.89,23.89,0,0,1-32.6,0c-2.21-2-2.46-4.34-.84-6.29s4.07-2.08,6.52-.07c7,5.73,14.25,5.73,21.2,0C80.26,64.75,82.65,64.77,84.36,66.81Z"/><path d="M86.22,49.22A5.62,5.62,0,0,1,80.51,55a5.77,5.77,0,0,1-5.79-5.78,6,6,0,0,1,5.93-5.71A5.74,5.74,0,0,1,86.22,49.22Z"/><path class="cls-4" d="M67.58,19c-21-.28-38.91,17-39.23,37.89a39,39,0,0,0,38.55,40C87.85,97.27,105.72,80,106.09,59A39,39,0,0,0,67.58,19Zm.07,69.28c-16,.48-30.2-12.91-30.71-29A30.41,30.41,0,0,1,66.67,27.6C82.64,27,97,40.47,97.49,56.47,98,74,85.11,87.77,67.65,88.29Z"/><path d="M54,43.52a5.88,5.88,0,0,1,5.69,5.64A5.67,5.67,0,0,1,54,55a5.58,5.58,0,0,1-5.78-5.69A5.76,5.76,0,0,1,54,43.52ZM83.55,73.11a23.89,23.89,0,0,1-32.6,0c-2.21-2-2.46-4.34-.84-6.29s4.07-2.08,6.52-.07c7,5.73,14.25,5.73,21.2,0,2.43-2,4.82-2,6.53,0S85.74,71.06,83.55,73.11Zm-3-18.1a5.77,5.77,0,0,1-5.79-5.78,6,6,0,0,1,5.93-5.71,5.74,5.74,0,0,1,5.57,5.7A5.62,5.62,0,0,1,80.51,55Z"/><path class="cls-5" d="M48.26,49.31A5.76,5.76,0,0,1,54,43.52a5.88,5.88,0,0,1,5.69,5.64A5.67,5.67,0,0,1,54,55,5.58,5.58,0,0,1,48.26,49.31Z"/><path class="cls-5" d="M84.36,66.81c1.63,2,1.38,4.25-.81,6.3a23.89,23.89,0,0,1-32.6,0c-2.21-2-2.46-4.34-.84-6.29s4.07-2.08,6.52-.07c7,5.73,14.25,5.73,21.2,0C80.26,64.75,82.65,64.77,84.36,66.81Z"/><path class="cls-5" d="M74.72,49.23a6,6,0,0,1,5.93-5.71,5.74,5.74,0,0,1,5.57,5.7A5.62,5.62,0,0,1,80.51,55,5.77,5.77,0,0,1,74.72,49.23Z"/><path class="cls-4" d="M83.55,73.11a23.89,23.89,0,0,1-32.6,0c-2.21-2-2.46-4.34-.84-6.29s4.07-2.08,6.52-.07c7,5.73,14.25,5.73,21.2,0,2.43-2,4.82-2,6.53,0S85.74,71.06,83.55,73.11Z"/><path class="cls-4" d="M59.72,49.16A5.67,5.67,0,0,1,54,55a5.58,5.58,0,0,1-5.78-5.69A5.76,5.76,0,0,1,54,43.52,5.88,5.88,0,0,1,59.72,49.16Z"/><path class="cls-4" d="M86.22,49.22A5.62,5.62,0,0,1,80.51,55a5.77,5.77,0,0,1-5.79-5.78,6,6,0,0,1,5.93-5.71A5.74,5.74,0,0,1,86.22,49.22Z"/></g></g></svg>