<svg xmlns="http://www.w3.org/2000/svg" viewBox="0 0 287.77 287.71"><defs><style>.cls-1{fill:#020202;}.cls-2{fill:#5bc9d1;}</style></defs><g id="Calque_2" data-name="Calque 2"><g id="Calque_1-2" data-name="Calque 1"><path d="M115.16,24.79c0-2.87,2.24-4.8,5.72-4.8q18.26,0,36.49,0c3.48,0,5.72,1.94,5.72,4.81s-2.21,4.73-5.73,4.74c-6.08,0-12.16,0-18.24,0s-12.16,0-18.24,0C117.36,29.53,115.15,27.66,115.16,24.79Z"/><path class="cls-1" d="M283.05,5.71C279.82,2.4,276.22.14,271.49,0H16.05C12.69.47,9.58,1.34,6.9,3.71A19.06,19.06,0,0,0,0,18.94q.17,80,.07,159.94,0,45,0,90.08A18,18,0,0,0,5.42,282.3c4,4.07,8.69,5.4,14.19,5.39q93.6-.07,187.2,0c20.76,0,41.53-.08,62.3,0a18.43,18.43,0,0,0,14.39-6.25,16.35,16.35,0,0,0,4.27-9.78V16.28A16.07,16.07,0,0,0,283.05,5.71ZM9.9,20.78c0-7.53,3.66-11.21,11.15-11.21H266.89c7.69,0,11.31,3.62,11.32,11.33,0,5-.14,9.92.06,14.87.09,2.22-.66,2.54-2.65,2.54q-65.81-.09-131.62,0H14.34c-4.44,0-4.44,0-4.44-4.58ZM278.21,266.59c0,7.52-3.69,11.23-11.16,11.23H21.19c-7.67,0-11.29-3.64-11.29-11.36Q9.9,158.7,9.84,51c0-2.61.72-3.16,3.21-3.16q65.55.12,131.07.06t131.07-.06c2.4,0,3.08.47,3.08,3Q278.15,158.7,278.21,266.59Z"/><path class="cls-1" d="M259.05,258.66c0,2.8-2.14,4.71-5.48,4.72q-24.69,0-49.4,0H36.06c-4.75,0-7.1-1.65-7-4.88s2.43-4.65,7-4.72c2.4,0,5.55,1.05,7-.45s.41-4.62.43-7c.05-8.32,0-16.64,0-25,0-3.65,1.72-5.72,4.65-5.78s4.9,2.18,4.91,5.87c0,9.92.09,19.83-.06,29.75,0,2.28.69,2.7,2.79,2.67q16.56-.14,33.11,0c1.94,0,2.52-.42,2.48-2.42-.14-6.83-.07-13.65,0-20.48,0-3.54,1.83-5.75,4.69-5.84s4.86,2.14,4.87,5.87c0,6.83.06,13.65,0,20.48,0,1.74.31,2.42,2.26,2.39q17-.14,33.95,0c2,0,2.21-.76,2.2-2.42q-.06-28.77,0-57.53c0-4.91,1.47-7.06,4.82-7s4.79,2.13,4.79,7.07c0,19,0,38-.05,57,0,2.21.35,3,2.82,3q16.27-.24,32.55,0c2.37,0,3.11-.42,3.1-3-.12-22.54-.08-45.08-.06-67.63,0-3.7,1.37-5.62,4.15-5.92,3-.32,5.32,1.7,5.38,5,.1,4.49,0,9,0,13.47,0,18.43,0,36.86-.05,55.28,0,2.12.42,2.81,2.7,2.78q16.55-.21,33.11,0c2.18,0,2.57-.61,2.55-2.63-.1-13,0-26-.05-39a6.76,6.76,0,0,1,.82-4,4.54,4.54,0,0,1,4.84-2.11,4.46,4.46,0,0,1,3.83,3.92,18.64,18.64,0,0,1,.08,2.8c0,12.81,0,25.62-.05,38.44,0,2.08.46,2.83,2.61,2.62a53.21,53.21,0,0,1,6.44,0C256.89,253.91,259.05,255.9,259.05,258.66Z"/><path class="cls-1" d="M171.49,90.27c-13.82-8.69-27.75-17.21-41.63-25.81-4.33-2.69-8.77-3-13.25-.47s-6.16,6.52-6.15,11.47c0,8.31,0,16.63,0,25s0,16.83,0,25.24c0,4.94,1.65,9,6.08,11.5s9.1,2.21,13.52-.53c13.79-8.55,27.62-17,41.37-25.67C179.71,105.76,179.75,95.47,171.49,90.27Zm-5.76,13q-20.11,12.48-40.22,25c-1.33.81-2.65,1.51-4.17.66s-1.28-2.36-1.28-3.75q0-12.34,0-24.69V76c0-1.4-.13-2.83,1.37-3.71s2.85,0,4.12.74Q145.65,85.48,165.77,98C168.79,99.83,168.76,101.34,165.73,103.22Z"/><path class="cls-2" d="M250.05,169.34a14.07,14.07,0,0,0-17.72-2,2.82,2.82,0,0,1-3.48-.06q-10.38-6.34-20.87-12.54a2.84,2.84,0,0,1-1.73-3c.39-7.5-4.54-13.87-11.44-15.09-7.67-1.36-14.17,2.67-16.6,10.34A2.51,2.51,0,0,1,176,149q-9,1.62-17.84,3.57a2.4,2.4,0,0,1-2.8-1c-4.56-5.55-11.17-7.17-17.31-4.36s-9.27,9-7.93,16.23a2.18,2.18,0,0,1-.86,2.55q-12.09,9.59-24.09,19.27a2.46,2.46,0,0,1-3,.35c-6.6-2.86-12.71-1.36-17.3,4.22a2.51,2.51,0,0,1-2.82,1.1c-5.84-1.25-11.69-2.46-17.55-3.59a2.73,2.73,0,0,1-2.58-2.29,14.08,14.08,0,0,0-14.57-10.3,14.27,14.27,0,0,0-5.48,27.07A13.9,13.9,0,0,0,59.28,198a3.06,3.06,0,0,1,3.53-1.23c5.67,1.16,11.34,2.31,17,3.41a3,3,0,0,1,2.68,2.58,14.28,14.28,0,0,0,27.65-7,2.51,2.51,0,0,1,1-3q12-9.48,23.88-19.07a2.38,2.38,0,0,1,2.92-.47c8.49,3.79,17.11-.13,19.81-9a2.82,2.82,0,0,1,2.6-2.29q8.53-1.57,17-3.4a2.94,2.94,0,0,1,3.49,1.18,13.73,13.73,0,0,0,18.56,3.16,2.71,2.71,0,0,1,3.43,0q10.27,6.27,20.66,12.36c1.52.89,2.72,1.68,2,3.42a14.6,14.6,0,0,0,10.33,14.61,14.34,14.34,0,0,0,14.22-23.86ZM48.25,193.82a4.82,4.82,0,0,1-4.74-4.6,4.64,4.64,0,0,1,4.59-4.95,4.79,4.79,0,0,1,4.95,4.65A5,5,0,0,1,48.25,193.82Zm48,9.55a4.9,4.9,0,0,1-4.88-4.77,4.82,4.82,0,0,1,4.87-4.76,4.65,4.65,0,0,1,4.67,4.59A4.76,4.76,0,0,1,96.22,203.37Zm47.93-38.3a4.85,4.85,0,0,1-4.86-4.77,4.77,4.77,0,1,1,9.53.09A4.85,4.85,0,0,1,144.15,165.07ZM192,155.49a4.8,4.8,0,0,1-4.81-4.81,4.67,4.67,0,0,1,4.81-4.74,4.82,4.82,0,0,1,4.73,4.89A5,5,0,0,1,192,155.49Zm47.73,28.75a5,5,0,0,1-4.72-4.69,4.79,4.79,0,0,1,4.77-4.85,4.62,4.62,0,0,1,4.78,4.75A4.83,4.83,0,0,1,239.77,184.24Z"/><path class="cls-1" d="M48.11,25A4.79,4.79,0,0,1,43,29.52a4.64,4.64,0,0,1-4.44-5.07A4.81,4.81,0,0,1,43.46,20,4.92,4.92,0,0,1,48.11,25Z"/><path class="cls-1" d="M29,24.8a4.82,4.82,0,0,1-4.88,4.73,4.62,4.62,0,0,1-4.65-4.88A4.76,4.76,0,0,1,24.09,20,4.93,4.93,0,0,1,29,24.8Z"/><path class="cls-1" d="M62.5,20a4.9,4.9,0,0,1,4.75,4.91,4.74,4.74,0,0,1-4.94,4.63,4.68,4.68,0,0,1-4.59-4.69A4.86,4.86,0,0,1,62.5,20Z"/></g></g></svg>