<svg xmlns="http://www.w3.org/2000/svg" viewBox="0 0 335.2 239.4"><defs><style>.cls-1{fill:#5bc9d1;}</style></defs><g id="Calque_2" data-name="Calque 2"><g id="Calque_1-2" data-name="Calque 1"><path d="M330,227.48a17.91,17.91,0,0,0-3.36-.09c-23.94,0-47.89,0-71.83.07-2.79,0-3.46-.63-3.45-3.44.12-28.17.06-56.35.09-84.53,0-.91-.37-1.94.51-3l37.89,31c-7.12,0-13.31,0-19.49,0-4.37,0-7,2.42-6.94,6.1.08,3.51,2.68,5.82,6.82,5.84q17,.07,34.05,0c4.81,0,7-2.26,7-7.18q.06-16.84,0-33.67c0-4.38-2.39-7-6.05-7s-5.88,2.7-5.9,7.13c0,6.73,0,13.45,0,21-1.41-1.12-2.26-1.78-3.1-2.46q-61.5-50.31-123-100.61c-4.93-4-7.06-3.93-11.49.5-13.05,13.06-26.14,26.07-39.08,39.23-2.16,2.19-3.26,2.61-5.71.13Q82.76,62,48.26,27.68a18,18,0,0,0-3.35-2.95,5.48,5.48,0,0,0-7.18.93,5.5,5.5,0,0,0-.93,7.18,16.3,16.3,0,0,0,2.7,3.07Q60.65,57.09,81.87,78.2a6.19,6.19,0,0,1,2,4.87q-.07,70.52,0,141c0,3-.91,3.36-3.53,3.35-21.33-.1-42.66-.19-64,.06-4,.05-4.49-1.19-4.48-4.71Q12.08,116,12,9.19a21.64,21.64,0,0,0-.1-4.11C11.28,1.88,9.26,0,5.94,0S.67,2,.11,5.23A23.15,23.15,0,0,0,0,9Q0,119.71,0,230.43c0,7.36,1.58,8.93,9,8.93H326.31a20.25,20.25,0,0,0,3.74-.09c3.2-.6,5.15-2.6,5.15-5.9S333.25,228.08,330,227.48Zm-194.88-.09c-12.43,0-24.86,0-37.29,0-1.67,0-2.12-.51-2.08-2.12.1-4.23,0-8.47,0-12.71V91.85c5.67,5.81,10.65,10.92,15.63,16,1,1.07,2.09,2.14,3.16,3.18,3.71,3.6,6.63,3.65,10.31,0q16.7-16.62,33.29-33.33c.94-1,1.72-2.07,2.64-3.18,1.26,1.37.79,2.53.79,3.55,0,20.81,0,41.62.09,62.43,0,2.75-.73,3.53-3.5,4.17-18.18,4.18-30.71,15.08-36.14,33s-1,33.88,11.76,47.56a13.61,13.61,0,0,0,1.72,1.37Zm32.37,0a35.92,35.92,0,1,1,36-36.07A36,36,0,0,1,167.52,227.39Zm70.24,0c-12.55-.07-25.1,0-38.41,0,6.15-6,10.56-12.29,13.21-19.75a47.8,47.8,0,0,0-36.34-63.17c-2-.38-2.63-.94-2.63-3,.07-22.44,0-44.88.06-67.32a12.44,12.44,0,0,1,.26-1.55c21.49,17.6,42.6,34.89,63.75,52.13a4.68,4.68,0,0,1,1.86,4.11q-.08,47.88-.06,95.76C239.46,225.79,240.22,227.44,237.76,227.42Zm-58.33-29.94a6,6,0,1,0,6.16,6.07A6,6,0,0,0,179.43,197.48Zm-4.2-22.07c-2.29,2.11-4.42,4.39-6.62,6.59q-8.46,8.46-16.9,16.93c-1.91,1.92-2.65,4.18-1.52,6.81a5.64,5.64,0,0,0,4.88,3.68,6,6,0,0,0,4.72-1.64c8.05-8,16.11-15.95,24.05-24.05a5.78,5.78,0,0,0,.07-8.39C181.53,172.89,178,172.85,175.23,175.41Zm-19.66,10.06a6,6,0,1,0-5.85-6.35A6,6,0,0,0,155.57,185.47Z"/><path class="cls-1" d="M149.72,179.12a6,6,0,1,1,5.85,6.35A6,6,0,0,1,149.72,179.12Z"/><path class="cls-1" d="M183.84,183.73c-7.94,8.1-16,16.07-24.05,24.05a6,6,0,0,1-4.72,1.64,5.64,5.64,0,0,1-4.88-3.68c-1.13-2.63-.39-4.89,1.52-6.81q8.41-8.49,16.9-16.93c2.2-2.2,4.33-4.48,6.62-6.59,2.79-2.56,6.3-2.52,8.68-.07A5.78,5.78,0,0,1,183.84,183.73Z"/><path class="cls-1" d="M185.59,203.55a6,6,0,1,1-6.16-6.07A6,6,0,0,1,185.59,203.55Z"/></g></g></svg>