<svg viewBox="0 0 800.5 179.51" xmlns="http://www.w3.org/2000/svg" xmlns:xlink="http://www.w3.org/1999/xlink"><linearGradient id="a" gradientUnits="userSpaceOnUse" x1="77.25" x2="100.37" y1="17.98" y2="158.82"><stop offset=".01" stop-color="#a6d6e2"/><stop offset="1" stop-color="#28b7c2"/></linearGradient><linearGradient id="b" gradientUnits="userSpaceOnUse" x1="74.43" x2="104.36" y1="17.77" y2="124.92"><stop offset=".07" stop-color="#a6d6e2"/><stop offset=".43" stop-color="#aadae2"/><stop offset=".93" stop-color="#71a4d8"/></linearGradient><path d="m114.07 27.35c-16.53-11.14-26.56-17.89-38.79-16.12-21.45 3.11-39.52 31-44.49 70.29a446 446 0 0 0 -6.16 56.58c-.91 20-.56 30.19 4.46 35.34 17 17.46 67.94-7.79 78.66-13.1a194.18 194.18 0 0 0 37.14-24.09 56.32 56.32 0 0 0 18.74-29 50.46 50.46 0 0 0 1.73-13c-.07-32.38-31.76-53.74-51.29-66.9zm38.09 77.91c-4.48 16.65-18.15 26.22-30.46 34.59-6.47 4.4-11.68 7-22.09 12.17-15 7.46-23.06 11.4-34.24 13.47a83.31 83.31 0 0 1 -23.17 1 5.2 5.2 0 0 1 -4.66-4.68 270.06 270.06 0 0 1 -1.22-30.81c.18-10.53.57-27.54 5.13-47.15 6.07-26.13 11.87-51 29.07-56.91 12.48-4.31 25.03 3.56 42.38 14.46 9.91 6.23 40.45 25.43 40.7 53a40.53 40.53 0 0 1 -1.44 10.86z" fill="url(#a)"/><path d="m153.91 24.47c-64.62-23.41-101.14-12.41-101.14-12.41-35.83 8.43-42.85 33.25-48 54.79s-16.15 93 33.24 86.39 101.15-36.29 118.48-48 62.04-57.36-2.58-80.77zm-9.06 65.68c-6.4 5.48-29.77 24.75-77.1 39.68-27.8 8.77-41.88 13-51 6-14.75-11.23-9.11-41.43-6.37-56.21 3.14-17 6-32.61 18.63-44.5 22.46-21.22 58.29-13.91 85.18-8.42 18.51 3.77 53.8 11 56.61 28.72 1.75 10.98-9.8 20.85-25.95 34.73z" fill="url(#b)"/><g fill="#474747"><path d="m288 124.91c-13.09 0-24.06-6.19-28.66-16.28a5.91 5.91 0 0 1 2.83-7.61 5.64 5.64 0 0 1 7.43 2.83c2.13 4.78 8.14 9.73 18.4 9.73 12.92 0 19.82-8.31 19.82-16.27 0-10.44-6.37-13.1-21.06-16.81-12.38-3.19-27.95-7.08-27.95-25.3a25.22 25.22 0 0 1 7.61-17.69c3.88-3.72 10.58-8.14 21.58-8.14 12.21 0 22.29 5.66 26.72 15a5.43 5.43 0 0 1 -2.66 7.43 5.67 5.67 0 0 1 -7.6-2.66c-1.95-4.06-7.26-8.67-16.46-8.67-13.09 0-17.87 9-17.87 14.69 0 8.67 5.66 11 19.46 14.33 12.41 3.22 29.54 7.51 29.54 27.82a27.16 27.16 0 0 1 -8.13 18.93c-4.08 3.89-11.33 8.67-23 8.67z"/><path d="m408.11 34.85v97.31a41.4 41.4 0 0 1 -77.66 20 5.62 5.62 0 0 1 9.9-5.31 30.15 30.15 0 0 0 56.44-14.68v-18.94a38.47 38.47 0 0 1 -27.79 11.68c-22.3 0-39.28-17.7-39.28-41.4v-48.66a5.67 5.67 0 0 1 5.66-5.48 5.55 5.55 0 0 1 5.66 5.48v48.66c0 17.16 12 30.07 28 30.07 15.74 0 27.77-12.91 27.77-30.07v-48.66a5.55 5.55 0 0 1 5.66-5.48 5.67 5.67 0 0 1 5.64 5.48z"/><path d="m495.86 70.06v49.19a5.58 5.58 0 1 1 -11.15 0v-49.19c0-17-11.14-29.55-26.53-29.55-15.93 0-28.31 13.1-28.31 29.55v49.19a5.58 5.58 0 1 1 -11.15 0v-84.4a5.58 5.58 0 0 1 11.15 0v6.37a39.11 39.11 0 0 1 28.31-11.85 35.92 35.92 0 0 1 27.59 12.21c6.55 7.42 10.09 17.51 10.09 28.48z"/><path d="m554.24 124.91a47.77 47.77 0 1 1 47.76-47.77 47.8 47.8 0 0 1 -47.76 47.77zm0-84.4a36.54 36.54 0 1 0 36.44 36.63 36.55 36.55 0 0 0 -36.44-36.63z"/><path d="m701.25 5.66v113.59a5.58 5.58 0 1 1 -11.15 0v-9.91a43.61 43.61 0 0 1 -34 15.57c-25.83 0-45.3-20.53-45.3-47.77s19.47-47.77 45.3-47.77a44 44 0 0 1 34 15.39v-39.1a5.58 5.58 0 1 1 11.15 0zm-11.15 71.48c0-20.88-14.68-36.63-34-36.63s-34 15.75-34 36.63c0 20.7 14.68 36.44 34 36.44s34-15.74 34-36.44z"/><path d="m757.86 124.91c-25.83 0-45.12-20.53-45.12-47.77 0-12.92 4.25-24.77 12-33.62a42.33 42.33 0 0 1 32.26-14.15c25.3 0 43.53 20 43.53 47.77a5.71 5.71 0 0 1 -5.67 5.66h-70.62c2.48 17.87 16.1 30.78 33.62 30.78 11.85 0 22.29-5.66 28.31-15.92a5.72 5.72 0 0 1 9.73 6 43.87 43.87 0 0 1 -38.04 21.25zm-33.62-53.43h64.58c-2.12-18.4-14.51-31-31.85-31s-30.43 12.77-32.73 31z"/></g></svg>